<?xml version="1.0" encoding="UTF-8"?>
<svg xmlns="http://www.w3.org/2000/svg" id="Layer_1" data-name="Layer 1" viewBox="0 0 24 24">
  <path d="M17.5,11c-3.59,0-6.5,2.91-6.5,6.5s2.91,6.5,6.5,6.5,6.5-2.91,6.5-6.5-2.91-6.5-6.5-6.5Zm2.5,9h-5.5c-.828,0-1.5-.672-1.5-1.5s.672-1.5,1.5-1.5c.009,0,.017,.002,.025,.003-.008-.084-.025-.166-.025-.253,0-1.519,1.231-2.75,2.75-2.75,1.261,0,2.313,.854,2.637,2.011,.038-.002,.074-.011,.113-.011,1.105,0,2,.895,2,2s-.895,2-2,2ZM0,4.5C0,2.015,3.806,0,8.5,0s8.5,2.015,8.5,4.5-3.806,4.5-8.5,4.5S0,6.985,0,4.5ZM0,15.566v-1.74c1.876,1.334,4.92,2.174,8.5,2.174,.219,0,.429-.013,.643-.019-.089,.494-.143,1-.143,1.519,0,.508,.053,1.002,.138,1.485-.211,.007-.422,.015-.638,.015-4.865,0-8.5-1.812-8.5-3.434Zm11.709,8.144c-1.024,.191-2.118,.29-3.209,.29-4.224,0-8.5-1.447-8.5-4.214v-.96c1.876,1.334,4.92,2.174,8.5,2.174,.422,0,.836-.014,1.243-.037,.468,1.045,1.141,1.976,1.967,2.747ZM0,10.567v-2.167c1.876,1.596,4.92,2.6,8.5,2.6,1.519,0,2.932-.19,4.21-.52-1.266,.865-2.279,2.067-2.927,3.472-.418,.028-.843,.048-1.283,.048C3.635,14,0,12.188,0,10.567Z"/>
</svg>
